<mxfile host="app.diagrams.net" modified="2024-07-15T05:27:12.785Z" agent="Mozilla/5.0 (Macintosh; Intel Mac OS X 10_15_7) AppleWebKit/537.36 (KHTML, like Gecko) Chrome/126.0.0.0 Safari/537.36" version="24.6.5" etag="KhJPB_1AOwXXAB9tchAZ" type="github">
  <diagram name="第 1 页" id="FTZ7WoVlrxoPDdT3iFCy">
    <mxGraphModel>
      <root>
        <mxCell id="0" />
        <mxCell id="1" parent="0" />
      </root>
    </mxGraphModel>
  </diagram>
</mxfile>
